<?xml version="1.0" encoding="UTF-8" standalone="no"?>
<svg
   xmlns:dc="http://purl.org/dc/elements/1.1/"
   xmlns:cc="http://creativecommons.org/ns#"
   xmlns:rdf="http://www.w3.org/1999/02/22-rdf-syntax-ns#"
   xmlns:svg="http://www.w3.org/2000/svg"
   xmlns="http://www.w3.org/2000/svg"
   xmlns:sodipodi="http://sodipodi.sourceforge.net/DTD/sodipodi-0.dtd"
   xmlns:inkscape="http://www.inkscape.org/namespaces/inkscape"
   version="1.1"
   id="Layer_1"
   x="0px"
   y="0px"
   viewBox="0 0 297 297"
   style="enable-background:new 0 0 297 297;"
   xml:space="preserve"
   sodipodi:docname="logo.svg"
   inkscape:version="1.0.2 (1.0.2+r75+1)"><metadata
   id="metadata961"><rdf:RDF><cc:Work
       rdf:about=""><dc:format>image/svg+xml</dc:format><dc:type
         rdf:resource="http://purl.org/dc/dcmitype/StillImage" /></cc:Work></rdf:RDF></metadata><defs
   id="defs959" /><sodipodi:namedview
   pagecolor="#ffffff"
   bordercolor="#666666"
   borderopacity="1"
   objecttolerance="10"
   gridtolerance="10"
   guidetolerance="10"
   inkscape:pageopacity="0"
   inkscape:pageshadow="2"
   inkscape:window-width="3440"
   inkscape:window-height="1440"
   id="namedview957"
   showgrid="false"
   inkscape:zoom="4.2053872"
   inkscape:cx="146.35989"
   inkscape:cy="89.290232"
   inkscape:window-x="1920"
   inkscape:window-y="0"
   inkscape:window-maximized="1"
   inkscape:current-layer="Layer_1" />
<g
   id="g924"
   transform="matrix(0.14739372,0,0,0.12702098,30.653473,1.9524474e-4)">
	<g
   id="g922">
		<g
   id="g920">
			<path
   d="m 147.655,71.797 c -17.947,0 -32.548,14.601 -32.548,32.548 0,17.947 14.601,32.548 32.548,32.548 17.947,0 32.548,-14.601 32.548,-32.548 0,-17.947 -14.6,-32.548 -32.548,-32.548 z m 0,49.779 c -9.501,0 -17.231,-7.73 -17.231,-17.231 0,-9.501 7.73,-17.231 17.231,-17.231 9.501,0 17.231,7.73 17.231,17.231 0,9.501 -7.73,17.231 -17.231,17.231 z"
   id="path916" />
			<path
   d="M 245.437,183.301 C 236.149,169.046 224.97,162.494 219.133,159.855 222.267,139.79 223.319,119.76 220.26,102.66 209.149,40.542 155.333,3.222 153.048,1.663 c -3.253,-2.217 -7.533,-2.217 -10.786,0 -2.285,1.558 -56.101,38.879 -67.211,100.996 -3.096,17.312 -1.979,37.627 1.246,57.941 -6.122,3.043 -16.221,9.637 -24.734,22.7 -16,24.555 -18.687,59.459 -7.985,103.742 0.74,3.065 2.943,5.569 5.888,6.695 1.107,0.423 2.264,0.63 3.416,0.63 1.916,0 3.815,-0.575 5.436,-1.692 l 46.663,-32.181 c 1.24,3.104 2.056,5.039 2.273,5.549 1.502,3.534 4.971,5.828 8.81,5.828 h 22.018 v 15.556 c 0,5.287 4.286,9.573 9.573,9.573 5.287,0 9.573,-4.286 9.573,-9.573 v -15.556 h 22.018 c 3.839,0 7.308,-2.294 8.81,-5.828 0.237,-0.558 1.193,-2.828 2.637,-6.464 l 47.989,33.096 c 1.621,1.117 3.521,1.692 5.436,1.692 1.152,0 2.31,-0.208 3.416,-0.63 2.945,-1.126 5.147,-3.629 5.888,-6.695 10.701,-44.282 8.015,-79.186 -7.985,-103.741 z M 147.655,21.617 c 6.194,5.032 16.822,14.516 27.123,27.684 H 120.532 C 130.835,36.13 141.464,26.647 147.655,21.617 Z m -88.39,247.148 c -10.448,-57.725 9.367,-80.269 20.823,-88.232 5.157,23.501 12.272,45.624 17.937,61.501 z m 113.526,-16.04 H 157.228 V 176.86 c 0,-5.287 -4.286,-9.573 -9.573,-9.573 -5.287,0 -9.573,4.286 -9.573,9.573 v 75.865 H 122.515 C 113.941,230.991 85.397,153.55 93.897,106.03 96.682,90.461 102.736,76.553 109.948,64.617 h 75.413 c 7.212,11.936 13.267,25.844 16.051,41.413 8.489,47.465 -20.048,124.948 -28.621,146.695 z m 64.945,16.04 -40.116,-27.666 c 5.688,-16.028 12.744,-38.143 17.816,-61.546 11.11,7.005 33.212,28.918 22.3,89.212 z"
   id="path918" />
		</g>
	</g>
</g>
<g
   id="g926"
   transform="matrix(0.14739372,0,0,0.12702098,30.653473,1.9524474e-4)">
</g>
<g
   id="g928"
   transform="matrix(0.14739372,0,0,0.12702098,30.653473,1.9524474e-4)">
</g>
<g
   id="g930"
   transform="matrix(0.14739372,0,0,0.12702098,30.653473,1.9524474e-4)">
</g>
<g
   id="g932"
   transform="matrix(0.14739372,0,0,0.12702098,30.653473,1.9524474e-4)">
</g>
<g
   id="g934"
   transform="matrix(0.14739372,0,0,0.12702098,30.653473,1.9524474e-4)">
</g>
<g
   id="g936"
   transform="matrix(0.14739372,0,0,0.12702098,30.653473,1.9524474e-4)">
</g>
<g
   id="g938"
   transform="matrix(0.14739372,0,0,0.12702098,30.653473,1.9524474e-4)">
</g>
<g
   id="g940"
   transform="matrix(0.14739372,0,0,0.12702098,30.653473,1.9524474e-4)">
</g>
<g
   id="g942"
   transform="matrix(0.14739372,0,0,0.12702098,30.653473,1.9524474e-4)">
</g>
<g
   id="g944"
   transform="matrix(0.14739372,0,0,0.12702098,30.653473,1.9524474e-4)">
</g>
<g
   id="g946"
   transform="matrix(0.14739372,0,0,0.12702098,30.653473,1.9524474e-4)">
</g>
<g
   id="g948"
   transform="matrix(0.14739372,0,0,0.12702098,30.653473,1.9524474e-4)">
</g>
<g
   id="g950"
   transform="matrix(0.14739372,0,0,0.12702098,30.653473,1.9524474e-4)">
</g>
<g
   id="g952"
   transform="matrix(0.14739372,0,0,0.12702098,30.653473,1.9524474e-4)">
</g>
<g
   id="g954"
   transform="matrix(0.14739372,0,0,0.12702098,30.653473,1.9524474e-4)">
</g>
</svg>
