<?xml version="1.0" encoding="utf-8"?>
<!-- Generator: Adobe Illustrator 19.1.0, SVG Export Plug-In . SVG Version: 6.00-home Build 0)  -->
<svg version="1.1" id="Layer_1" xmlns="http://www.w3.org/2000/svg" xmlns:xlink="http://www.w3.org/1999/xlink" x="0px" y="0px"
	 viewBox="0 0 64 64" enable-background="new 0 0 64 64" xml:space="preserve">
<g id="Burger_2_">
	<path fill-rule="evenodd" clip-rule="evenodd" d="M1.3691008,30h61.261795c0.4257011,0,0.8047028-0.2695007,0.9443016-0.6718998
		C63.857399,28.5165997,64,27.6884995,64,26.8661995C64,18.5303001,49.9434013,12,31.9990005,12
		c-17.943285,0-31.9990005,6.5303001-31.9990005,14.8661995c0,0.825201,0.1426,1.6543007,0.4248,2.4629002
		C0.5645008,29.7304993,0.9434008,30,1.3691008,30z M31.9990005,14C48.2617149,14,62,19.8915997,62,26.8661995
		c0,0.3760014-0.0419998,0.7549-0.1240005,1.1338005H2.1240008c-0.0829999-0.3778992-0.1240001-0.7567997-0.1240001-1.1338005
		C2.0000007,19.8915997,15.7383003,14,31.9990005,14z"/>
	<path fill-rule="evenodd" clip-rule="evenodd" d="M60.9911995,42H3.0088007c-1.6592,0-3.0088,1.3456993-3.0088,3v4
		c0,1.6543007,1.3496,3,3.0088,3h57.982399C62.6503983,52,64,50.6543007,64,49v-4C64,43.3456993,62.6503983,42,60.9911995,42z
		 M62,49c0,0.5517998-0.4520988,1-1.0088005,1H3.0088007c-0.5566001,0-1.0088-0.4482002-1.0088-1v-4
		c0-0.5517006,0.4521999-1,1.0088-1h57.982399C61.5479012,44,62,44.4482994,62,45V49z"/>
	<path fill-rule="evenodd" clip-rule="evenodd" d="M5.9434009,32c-2.3614001,0-4.2832003,1.7939987-4.2832003,4
		c0,2.2061005,1.9218,4,4.2832003,4h52.1113129c2.3632851,0,4.2851868-1.7938995,4.2851868-4c0-2.2060013-1.9219017-4-4.2851868-4
		H5.9434009z M60.339901,36c0,1.1026001-1.0254021,2-2.2851868,2H5.9434009c-1.2588,0-2.2832-0.8973999-2.2832-2
		c0-1.1025009,1.0244-2,2.2832-2h52.1113129C59.3144989,34,60.339901,34.8974991,60.339901,36z"/>
	<circle fill-rule="evenodd" clip-rule="evenodd" cx="20.0100002" cy="22" r="1"/>
	<circle fill-rule="evenodd" clip-rule="evenodd" cx="26.0100002" cy="18" r="1"/>
	<circle fill-rule="evenodd" clip-rule="evenodd" cx="34.0099983" cy="22" r="1"/>
	<circle fill-rule="evenodd" clip-rule="evenodd" cx="38.010498" cy="18" r="0.9994"/>
	<circle fill-rule="evenodd" clip-rule="evenodd" cx="46.0099983" cy="22" r="1"/>
</g>
<g>
</g>
<g>
</g>
<g>
</g>
<g>
</g>
<g>
</g>
<g>
</g>
<g>
</g>
<g>
</g>
<g>
</g>
<g>
</g>
<g>
</g>
<g>
</g>
<g>
</g>
<g>
</g>
<g>
</g>
</svg>
